<svg width="105" height="16" viewBox="0 0 105 16" fill="none" xmlns="http://www.w3.org/2000/svg">
<path d="M1.00391 6.68799L0.00390634 6.68799L0.00390616 8.68799L1.00391 8.68799L1.00391 6.68799ZM104.711 8.3951C105.102 8.00458 105.102 7.37141 104.711 6.98089L98.3471 0.616929C97.9565 0.226405 97.3234 0.226405 96.9328 0.616929C96.5423 1.00745 96.5423 1.64062 96.9328 2.03114L102.59 7.688L96.9328 13.3449C96.5423 13.7354 96.5423 14.3685 96.9328 14.7591C97.3234 15.1496 97.9565 15.1496 98.3471 14.7591L104.711 8.3951ZM1.00391 8.68799L104.004 8.688L104.004 6.688L1.00391 6.68799L1.00391 8.68799Z" fill="#010101"/>
</svg>
