<svg width="107" height="16" viewBox="0 0 107 16" fill="none" xmlns="http://www.w3.org/2000/svg">
<path d="M106.004 8.68848L107.004 8.68848L107.004 6.68848L106.004 6.68848L106.004 8.68848ZM0.296807 6.98133C-0.0937171 7.37185 -0.0937173 8.00501 0.296807 8.39554L6.66077 14.7595C7.05129 15.15 7.68445 15.15 8.07498 14.7595C8.4655 14.369 8.4655 13.7358 8.07498 13.3453L2.41813 7.68843L8.07498 2.03158C8.46551 1.64106 8.46551 1.00789 8.07498 0.617368C7.68446 0.226844 7.0513 0.226843 6.66077 0.617368L0.296807 6.98133ZM106.004 6.68848L1.00391 6.68843L1.00391 8.68843L106.004 8.68848L106.004 6.68848Z" fill="#010101"/>
</svg>
