<svg width="341" height="46" viewBox="0 0 341 46" fill="none" xmlns="http://www.w3.org/2000/svg">
<g clip-path="url(#clip0_4595_883)">
<path d="M10.96 20.04H20.66V34.03C20.66 41.09 17.13 45.12 10.33 45.12C3.53 45.12 0 41.08 0 34.02V11.09C0 4.03 3.53 0 10.33 0C17.13 0 20.66 4.03 20.66 11.09V15.37H14.11V10.64C14.11 7.49 12.72 6.29 10.52 6.29C8.32 6.29 6.93 7.49 6.93 10.64V34.46C6.93 37.61 8.32 38.74 10.52 38.74C12.72 38.74 14.11 37.61 14.11 34.46V26.33H10.96V20.03V20.04Z" fill="currentColor"/>
<path d="M32 0.5V34.53C32 37.68 33.39 38.81 35.59 38.81C37.79 38.81 39.18 37.68 39.18 34.53V0.5H45.73V34.08C45.73 41.14 42.2 45.17 35.4 45.17C28.6 45.17 25.07 41.14 25.07 34.08V0.5H32Z" fill="currentColor"/>
<path d="M60.04 0C66.78 0 70.25 4.03 70.25 11.09V12.48H63.7V10.65C63.7 7.5 62.44 6.3 60.23 6.3C58.02 6.3 56.76 7.5 56.76 10.65C56.76 19.72 70.31 21.42 70.31 34.02C70.31 41.08 66.78 45.11 59.98 45.11C53.18 45.11 49.65 41.08 49.65 34.02V31.31H56.2V34.46C56.2 37.61 57.59 38.74 59.79 38.74C61.99 38.74 63.38 37.61 63.38 34.46C63.38 25.39 49.83 23.69 49.83 11.09C49.83 4.03 53.3 0 60.04 0Z" fill="currentColor"/>
<path d="M72.51 0.5H93.93V6.8H86.68V44.61H79.75V6.8H72.5V0.5H72.51Z" fill="currentColor"/>
<path d="M117.24 44.61H110.25L109.05 36.61H100.54L99.34 44.61H92.98L100.04 0.5H110.18L117.24 44.6V44.61ZM101.43 30.62H108.11L104.77 8.32L101.43 30.62Z" fill="currentColor"/>
<path d="M127.64 20.1H136.59V26.4H127.64V44.61H120.71V0.5H139.04V6.8H127.64V20.09V20.1Z" fill="currentColor"/>
<path d="M168.02 21.11L165.5 44.61H155.99L151.07 0.5H157.81L161.53 35.28L164.87 0.5H171.55L175.01 35.53L178.6 0.5H184.65L179.74 44.6H170.54L168.02 21.1V21.11Z" fill="currentColor"/>
<path d="M195.3 19.09H204.81V25.39H195.3V38.31H207.27V44.61H188.37V0.5H207.27V6.8H195.3V19.09Z" fill="currentColor"/>
<path d="M221.13 0C227.87 0 231.34 4.03 231.34 11.09V12.48H224.79V10.65C224.79 7.5 223.53 6.3 221.32 6.3C219.11 6.3 217.86 7.5 217.86 10.65C217.86 19.72 231.41 21.42 231.41 34.02C231.41 41.08 227.88 45.11 221.08 45.11C214.28 45.11 210.75 41.08 210.75 34.02V31.31H217.3V34.46C217.3 37.61 218.69 38.74 220.89 38.74C223.09 38.74 224.48 37.61 224.48 34.46C224.48 25.39 210.93 23.69 210.93 11.09C210.93 4.03 214.4 0 221.14 0L221.13 0Z" fill="currentColor"/>
<path d="M233.6 0.5H255.02V6.8H247.77V44.61H240.84V6.8H233.59V0.5H233.6Z" fill="currentColor"/>
<path d="M272.98 31.82L277.7 0.51H287.34V44.61H280.79V12.98L276 44.61H269.45L264.28 13.42V44.61H258.23V0.5H267.87L272.97 31.81L272.98 31.82Z" fill="currentColor"/>
<path d="M315.06 44.61H308.07L306.87 36.61H298.37L297.17 44.61H290.81L297.86 0.5H308L315.06 44.6V44.61ZM299.25 30.62H305.93L302.59 8.32L299.25 30.62Z" fill="currentColor"/>
<path d="M324.7 12.66V44.6H318.46V0.5H327.15L334.27 26.9V0.5H340.44V44.61H333.32L324.69 12.67L324.7 12.66Z" fill="currentColor"/>
</g>
<defs>
<clipPath id="clip0_4595_883">
<rect width="340.45" height="45.17" fill="white"/>
</clipPath>
</defs>
</svg>
