<svg width="134" height="158" viewBox="0 0 134 158" fill="none" xmlns="http://www.w3.org/2000/svg">
<path d="M114.2 37.3422C113.188 37.0454 112.166 36.7826 111.136 36.5542C110.058 36.3162 108.973 36.1092 107.883 35.9334C103.981 35.2993 99.7195 35 95.1428 35H56.5334C55.6119 34.9979 54.702 35.2057 53.8721 35.6076C52.9696 36.0403 52.1856 36.6873 51.5882 37.4926C50.9908 38.298 50.5979 39.2374 50.4435 40.2296L42.237 92.477L42 94C42.5398 90.5621 45.4681 88.0263 48.9362 88.0263H63.39C91.7763 88.0263 114.003 76.4492 120.495 42.9589C120.689 41.9684 120.851 41.0086 121 40.0625C119.356 39.191 117.576 38.4379 115.66 37.7996C115.176 37.6387 114.689 37.4862 114.2 37.3422Z" fill="#1F264F"/>
<path d="M120.334 42.8791C113.893 76.1649 91.8455 87.6777 63.687 87.6777H49.3494C45.9097 87.6777 43.0044 90.1984 42.47 93.6158L33.0458 153.729C32.6937 155.97 34.4156 158 36.6684 158H62.0951C63.5517 158 64.9602 157.476 66.0676 156.524C67.1749 155.572 67.9084 154.254 68.136 152.806L68.3836 151.503L73.1759 120.942L73.4847 119.253C73.7123 117.805 74.4456 116.487 75.5529 115.535C76.6601 114.583 78.0686 114.06 79.525 114.059H83.3304C107.962 114.059 127.248 103.991 132.884 74.8702C135.237 62.7008 134.019 52.5405 127.796 45.4039C125.909 43.2424 123.564 41.4572 120.834 40C120.686 40.941 120.525 41.8945 120.334 42.8791Z" fill="#2790C3"/>
<path d="M53.5793 35.8511C54.4055 35.455 55.3091 35.2497 56.2242 35.2503H94.601C99.1454 35.2503 103.384 35.548 107.258 36.1757C108.341 36.3497 109.42 36.5575 110.491 36.7987C112.009 37.136 113.509 37.5488 114.987 38.0356C116.891 38.676 118.665 39.4218 120.295 40.2951C122.216 27.954 120.281 19.5615 113.654 11.959C106.356 3.58859 93.1762 0 76.3098 0H27.3545C23.9077 0 20.9754 2.52661 20.4352 5.95234L0.0528954 136.108C-0.352239 138.679 1.62161 141 4.20107 141H34.426L50.1723 40.4574C50.3272 39.4691 50.7181 38.5335 51.3116 37.7311C51.9051 36.9287 52.6833 36.2836 53.5793 35.8511Z" fill="#27346A"/>
</svg>
